<svg version="1.1" xmlns="http://www.w3.org/2000/svg" viewBox="0 0 802.8399505615234 826.4307643655617" width="1605.6799011230469" height="1652.8615287311234" filter="invert(93%) hue-rotate(180deg)">
  <!-- svg-source:excalidraw -->
  
  <defs>
    <style class="style-fonts">
      @font-face {
        font-family: "Virgil";
        src: url("https://excalidraw.com/Virgil.woff2");
      }
      @font-face {
        font-family: "Cascadia";
        src: url("https://excalidraw.com/Cascadia.woff2");
      }
      @font-face {
        font-family: "Assistant";
        src: url("https://excalidraw.com/Assistant-Regular.woff2");
      }
    </style>
    
  </defs>
  <rect x="0" y="0" width="802.8399505615234" height="826.4307643655617" fill="#ffffff"></rect><g stroke-linecap="round" transform="translate(334 10) rotate(0 92.5 23)"><path d="M11.5 0 C49.96 -0.98, 90.85 -0.14, 173.5 0 M11.5 0 C74.47 0.91, 136.46 0.69, 173.5 0 M173.5 0 C179.69 1.65, 184.03 3.77, 185 11.5 M173.5 0 C182.95 -1.35, 184.05 4.13, 185 11.5 M185 11.5 C183.04 21.02, 184.89 27.81, 185 34.5 M185 11.5 C184.96 20.24, 184.45 28.65, 185 34.5 M185 34.5 C184.72 40.54, 179.19 47.11, 173.5 46 M185 34.5 C184.21 43.04, 179.18 43.81, 173.5 46 M173.5 46 C128.4 47.79, 81.46 49.06, 11.5 46 M173.5 46 C136.9 47.96, 99.61 48.05, 11.5 46 M11.5 46 C3 44, -0.99 43.23, 0 34.5 M11.5 46 C2.63 44.53, -0.25 41.03, 0 34.5 M0 34.5 C-1.46 27.04, -1.58 21.12, 0 11.5 M0 34.5 C-1.14 27.34, -0.14 20.07, 0 11.5 M0 11.5 C0.91 2.14, 4.02 -1.38, 11.5 0 M0 11.5 C1.09 3.11, 4.61 -1.94, 11.5 0" stroke="#1e1e1e" stroke-width="2" fill="none"></path></g><g transform="translate(394.86002349853516 20.5) rotate(0 31.639976501464844 12.5)"><text x="31.639976501464844" y="0" font-family="Virgil, Segoe UI Emoji" font-size="20px" fill="#1e1e1e" text-anchor="middle" style="white-space: pre;" direction="ltr" dominant-baseline="text-before-edge">Window</text></g><g stroke-linecap="round"><g transform="translate(419.5277608263102 66) rotate(0 1.5154124641314866 37)"><path d="M0.93 0.15 C1.31 12.59, 2.47 62.51, 2.69 74.69 M-0.03 -0.82 C0.12 11.28, 0.77 60.44, 1.56 72.93" stroke="#1e1e1e" stroke-width="2" fill="none"></path></g><g transform="translate(419.5277608263102 66) rotate(0 1.5154124641314866 37)"><path d="M-7.8 49.75 C-4.39 56.91, -0.34 63.98, 1.56 72.93 M-7.8 49.75 C-6.1 55.43, -2.87 59.97, 1.56 72.93" stroke="#1e1e1e" stroke-width="2" fill="none"></path></g><g transform="translate(419.5277608263102 66) rotate(0 1.5154124641314866 37)"><path d="M9.29 49.15 C6.95 56.65, 5.25 63.92, 1.56 72.93 M9.29 49.15 C6.99 54.83, 6.22 59.51, 1.56 72.93" stroke="#1e1e1e" stroke-width="2" fill="none"></path></g></g><mask></mask><g stroke-linecap="round" transform="translate(333.5 148.15488160606475) rotate(0 92.5 23)"><path d="M11.5 0 C56.75 2.67, 101.68 2.69, 173.5 0 M11.5 0 C44.51 -0.46, 79.99 -0.7, 173.5 0 M173.5 0 C182.34 -0.46, 184.68 5.33, 185 11.5 M173.5 0 C179.13 0.51, 184.91 1.72, 185 11.5 M185 11.5 C184.36 18.47, 185.21 25.32, 185 34.5 M185 11.5 C185.41 16.54, 184.52 21.95, 185 34.5 M185 34.5 C184.9 43.02, 181.36 44.52, 173.5 46 M185 34.5 C185.28 41.56, 183.12 47.16, 173.5 46 M173.5 46 C130.4 46.61, 83.43 45.74, 11.5 46 M173.5 46 C124.41 46.23, 75.98 46.69, 11.5 46 M11.5 46 C4.99 47.47, -1.41 43.79, 0 34.5 M11.5 46 C1.62 44.61, 0.36 42.54, 0 34.5 M0 34.5 C-0.82 30.59, -0.1 24.99, 0 11.5 M0 34.5 C0.37 28, -0.89 20.99, 0 11.5 M0 11.5 C1.54 2.71, 2.07 0.86, 11.5 0 M0 11.5 C0.84 2.88, 2.86 -0.2, 11.5 0" stroke="#1e1e1e" stroke-width="2" fill="none"></path></g><g transform="translate(379.8400421142578 158.65488160606475) rotate(0 46.15995788574219 12.5)"><text x="46.15995788574219" y="0" font-family="Virgil, Segoe UI Emoji" font-size="20px" fill="#1e1e1e" text-anchor="middle" style="white-space: pre;" direction="ltr" dominant-baseline="text-before-edge">Document</text></g><g stroke-linecap="round"><g transform="translate(419.2828836564114 200.15488160606475) rotate(0 1.2388311939175196 30)"><path d="M0.99 -1.1 C1.29 8.89, 2.7 49.75, 2.79 59.78 M0.05 0.94 C0.13 11.12, 1.36 51.37, 2.01 61.19" stroke="#1e1e1e" stroke-width="2" fill="none"></path></g><g transform="translate(419.2828836564114 200.15488160606475) rotate(0 1.2388311939175196 30)"><path d="M-7.59 38.11 C-5.78 47.36, -0.67 54.03, 2.01 61.19 M-7.59 38.11 C-4.65 43.13, -3.26 49.27, 2.01 61.19" stroke="#1e1e1e" stroke-width="2" fill="none"></path></g><g transform="translate(419.2828836564114 200.15488160606475) rotate(0 1.2388311939175196 30)"><path d="M9.5 37.34 C4.79 47.02, 3.39 53.99, 2.01 61.19 M9.5 37.34 C8.62 42.37, 6.19 48.68, 2.01 61.19" stroke="#1e1e1e" stroke-width="2" fill="none"></path></g></g><mask></mask><g stroke-linecap="round" transform="translate(332.5 268.402546383515) rotate(0 92.5 22)"><path d="M11 0 C73.44 0.84, 137.31 1.88, 174 0 M11 0 C49.38 0.58, 86.81 -0.54, 174 0 M174 0 C181.85 1.78, 185.62 4.65, 185 11 M174 0 C179.68 1.29, 186.32 2.15, 185 11 M185 11 C184.26 17.9, 184.28 25.13, 185 33 M185 11 C184.15 16.55, 185.56 22.56, 185 33 M185 33 C183.5 42.1, 183.26 45.61, 174 44 M185 33 C183.13 41.1, 183.38 43.29, 174 44 M174 44 C131.72 44.07, 92.88 41.64, 11 44 M174 44 C134.8 44.34, 97.52 43.34, 11 44 M11 44 C3.84 42.68, 1.5 40.18, 0 33 M11 44 C5.78 44.86, 0.8 38.42, 0 33 M0 33 C1.44 26.31, -0.23 19.19, 0 11 M0 33 C-0.33 25.21, 0.31 17.86, 0 11 M0 11 C-1.89 3.39, 2.46 0.41, 11 0 M0 11 C0.08 3.39, 3.06 2.09, 11 0" stroke="#1e1e1e" stroke-width="2" fill="none"></path></g><g transform="translate(397.8000183105469 277.902546383515) rotate(0 27.199981689453125 12.5)"><text x="27.199981689453125" y="0" font-family="Virgil, Segoe UI Emoji" font-size="20px" fill="#1e1e1e" text-anchor="middle" style="white-space: pre;" direction="ltr" dominant-baseline="text-before-edge">HTML</text></g><g stroke-linecap="round"><g transform="translate(376.11594731183175 316.402546383515) rotate(0 -62.16313020527528 58)"><path d="M0.98 -0.83 C-19.78 18.54, -103.5 96.58, -124.23 116.23 M0.03 1.35 C-20.91 20.33, -104.51 95.24, -125.13 114.23" stroke="#1e1e1e" stroke-width="2" fill="none"></path></g><g transform="translate(376.11594731183175 316.402546383515) rotate(0 -62.16313020527528 58)"><path d="M-113.47 92.11 C-118.7 99.65, -120.77 108.33, -125.13 114.23 M-113.47 92.11 C-117.61 101.57, -122.09 109.77, -125.13 114.23" stroke="#1e1e1e" stroke-width="2" fill="none"></path></g><g transform="translate(376.11594731183175 316.402546383515) rotate(0 -62.16313020527528 58)"><path d="M-101.98 104.78 C-110.99 108.24, -116.85 112.75, -125.13 114.23 M-101.98 104.78 C-110.66 109.29, -119.61 112.56, -125.13 114.23" stroke="#1e1e1e" stroke-width="2" fill="none"></path></g></g><mask></mask><g stroke-linecap="round"><g transform="translate(466.57510002862557 318.8020837556571) rotate(0 48.41187890130408 58)"><path d="M-0.5 0.46 C15.52 19.58, 79.84 95.51, 96.23 114.96 M1.44 -0.35 C17.85 18.86, 82.59 96.65, 98.63 115.95" stroke="#1e1e1e" stroke-width="2" fill="none"></path></g><g transform="translate(466.57510002862557 318.8020837556571) rotate(0 48.41187890130408 58)"><path d="M77.03 103.36 C84.48 106.34, 88.64 112.96, 98.63 115.95 M77.03 103.36 C85.52 109.14, 94.37 112.55, 98.63 115.95" stroke="#1e1e1e" stroke-width="2" fill="none"></path></g><g transform="translate(466.57510002862557 318.8020837556571) rotate(0 48.41187890130408 58)"><path d="M90.18 92.42 C93.59 98.72, 93.7 108.71, 98.63 115.95 M90.18 92.42 C93.37 102.47, 97 110.23, 98.63 115.95" stroke="#1e1e1e" stroke-width="2" fill="none"></path></g></g><mask></mask><g stroke-linecap="round" transform="translate(160.5 442) rotate(0 92.5 22)"><path d="M11 0 C48.58 1.57, 85.58 -1.95, 174 0 M11 0 C66.53 1.57, 121.91 1.32, 174 0 M174 0 C179.6 -0.28, 186.25 1.74, 185 11 M174 0 C181.95 1.4, 185.79 2.58, 185 11 M185 11 C183.26 16.69, 184.3 22.38, 185 33 M185 11 C184.48 17.91, 185.77 23.94, 185 33 M185 33 C185.33 41.37, 179.85 45.21, 174 44 M185 33 C186.4 40.79, 179.93 41.88, 174 44 M174 44 C137.49 43.42, 104.45 46, 11 44 M174 44 C120.45 43.29, 67.91 42.25, 11 44 M11 44 C5.09 45.59, -1.44 41.53, 0 33 M11 44 C4.38 44.38, -2 38.78, 0 33 M0 33 C-1.74 25.44, -2.15 18.77, 0 11 M0 33 C0.26 27.84, 0.69 22.09, 0 11 M0 11 C-0.96 3.33, 3.36 1.64, 11 0 M0 11 C0.03 2.27, 3.18 -0.83, 11 0" stroke="#1e1e1e" stroke-width="2" fill="none"></path></g><g transform="translate(226.3900146484375 451.5) rotate(0 26.6099853515625 12.5)"><text x="26.6099853515625" y="0" font-family="Virgil, Segoe UI Emoji" font-size="20px" fill="#1e1e1e" text-anchor="middle" style="white-space: pre;" direction="ltr" dominant-baseline="text-before-edge">HEAD</text></g><g stroke-linecap="round" transform="translate(470.5 445) rotate(0 92.5 22)"><path d="M11 0 C67.69 -1.4, 129.83 -0.36, 174 0 M11 0 C52.05 -1.2, 93.83 0.19, 174 0 M174 0 C180.82 -1.24, 183.95 4.95, 185 11 M174 0 C183.54 0.74, 183.86 5.15, 185 11 M185 11 C184.61 15.3, 185.52 24.74, 185 33 M185 11 C185.17 18.37, 184.29 27.78, 185 33 M185 33 C186.13 41.08, 181.59 43.78, 174 44 M185 33 C187.23 41.12, 181.6 44.6, 174 44 M174 44 C116.43 45.01, 57.6 46.5, 11 44 M174 44 C111.55 42.35, 48.94 42.7, 11 44 M11 44 C2.05 45.92, 1.47 40.33, 0 33 M11 44 C1.82 44.87, -1.03 40.84, 0 33 M0 33 C0.07 23.74, 1.74 16.03, 0 11 M0 33 C-0.11 27.68, -0.07 23.08, 0 11 M0 11 C-0.33 5.19, 3.34 1.84, 11 0 M0 11 C-0.19 3.24, 4.19 -1.26, 11 0" stroke="#1e1e1e" stroke-width="2" fill="none"></path></g><g transform="translate(535.5100173950195 454.5) rotate(0 27.48998260498047 12.5)"><text x="27.48998260498047" y="0" font-family="Virgil, Segoe UI Emoji" font-size="20px" fill="#1e1e1e" text-anchor="middle" style="white-space: pre;" direction="ltr" dominant-baseline="text-before-edge">BODY</text></g><g stroke-linecap="round"><g transform="translate(193 491) rotate(0 -54 48)"><path d="M0.21 -0.94 C-17.87 14.93, -89.63 79.41, -107.84 95.37 M-1.14 1.18 C-19.42 17.19, -91.11 80.85, -108.71 96.58" stroke="#1e1e1e" stroke-width="2" fill="none"></path></g><g transform="translate(193 491) rotate(0 -54 48)"><path d="M-96.85 74.57 C-102.55 82.59, -106.21 88.31, -108.71 96.58 M-96.85 74.57 C-99.69 78.76, -102.71 84.42, -108.71 96.58" stroke="#1e1e1e" stroke-width="2" fill="none"></path></g><g transform="translate(193 491) rotate(0 -54 48)"><path d="M-85.48 87.35 C-95.2 90.9, -102.85 92.12, -108.71 96.58 M-85.48 87.35 C-90.6 88.91, -95.94 91.97, -108.71 96.58" stroke="#1e1e1e" stroke-width="2" fill="none"></path></g></g><mask></mask><g stroke-linecap="round"><g transform="translate(259.8163294134149 489) rotate(0 -25.261893909973253 54)"><path d="M-0.18 0.15 C-8.53 18.39, -41.28 90.31, -49.83 108.33 M-1.74 -0.82 C-10.21 17.14, -42.53 87.96, -50.41 106.39" stroke="#1e1e1e" stroke-width="2" fill="none"></path></g><g transform="translate(259.8163294134149 489) rotate(0 -25.261893909973253 54)"><path d="M-48.69 81.45 C-49.22 90.61, -49.47 95.89, -50.41 106.39 M-48.69 81.45 C-48.12 90.36, -48.73 96.81, -50.41 106.39" stroke="#1e1e1e" stroke-width="2" fill="none"></path></g><g transform="translate(259.8163294134149 489) rotate(0 -25.261893909973253 54)"><path d="M-33.06 88.39 C-38.55 95.3, -43.82 98.35, -50.41 106.39 M-33.06 88.39 C-37.6 95.02, -43.28 99.22, -50.41 106.39" stroke="#1e1e1e" stroke-width="2" fill="none"></path></g></g><mask></mask><g transform="translate(56 595) rotate(0 21.58997344970703 12.5)"><text x="0" y="0" font-family="Virgil, Segoe UI Emoji" font-size="20px" fill="#1e1e1e" text-anchor="start" style="white-space: pre;" direction="ltr" dominant-baseline="text-before-edge">title</text></g><g stroke-linecap="round"><g transform="translate(66.44345686968478 632) rotate(0 -5.768957010863289 28.999999999999943)"><path d="M0.81 0.88 C-0.86 10.79, -9.09 49.28, -11.15 58.83 M-0.22 0.3 C-1.92 9.93, -9.88 47.27, -11.89 57.14" stroke="#1e1e1e" stroke-width="2" fill="none"></path></g><g transform="translate(66.44345686968478 632) rotate(0 -5.768957010863289 28.999999999999943)"><path d="M-15.47 32.4 C-13.38 38.18, -12.72 42.75, -11.89 57.14 M-15.47 32.4 C-13.69 40.94, -13.72 48.73, -11.89 57.14" stroke="#1e1e1e" stroke-width="2" fill="none"></path></g><g transform="translate(66.44345686968478 632) rotate(0 -5.768957010863289 28.999999999999943)"><path d="M1.27 35.88 C-0.11 41.06, -2.94 44.89, -11.89 57.14 M1.27 35.88 C-2.16 43.45, -7.43 50.15, -11.89 57.14" stroke="#1e1e1e" stroke-width="2" fill="none"></path></g></g><mask></mask><g transform="translate(10 698) rotate(0 42.75995635986328 10.961852602031115)"><text x="0" y="0" font-family="Virgil, Segoe UI Emoji" font-size="17.53896416324979px" fill="#1e1e1e" text-anchor="start" style="white-space: pre;" direction="ltr" dominant-baseline="text-before-edge">text node</text></g><g transform="translate(180 611) rotate(0 24.119979858398438 12.5)"><text x="0" y="0" font-family="Virgil, Segoe UI Emoji" font-size="20px" fill="#1e1e1e" text-anchor="start" style="white-space: pre;" direction="ltr" dominant-baseline="text-before-edge">meta</text></g><g stroke-linecap="round"><g transform="translate(197.22277782850722 650) rotate(0 -5.748797458167928 19.5)"><path d="M0.29 -0.21 C-1.65 6.33, -10.1 32.57, -11.99 39.06 M-0.23 -0.8 C-1.98 5.87, -9.18 33.12, -11.01 39.79" stroke="#1e1e1e" stroke-width="2" fill="none"></path></g><g transform="translate(197.22277782850722 650) rotate(0 -5.748797458167928 19.5)"><path d="M-12.77 19.54 C-12.78 23.47, -11.86 29.97, -11.01 39.79 M-12.77 19.54 C-12.7 24.8, -12.23 30.11, -11.01 39.79" stroke="#1e1e1e" stroke-width="2" fill="none"></path></g><g transform="translate(197.22277782850722 650) rotate(0 -5.748797458167928 19.5)"><path d="M0.66 23.15 C-2.55 26.25, -4.83 31.89, -11.01 39.79 M0.66 23.15 C-2.67 27.45, -5.61 31.84, -11.01 39.79" stroke="#1e1e1e" stroke-width="2" fill="none"></path></g></g><mask></mask><g transform="translate(149 701) rotate(0 36.229949951171875 9.796125128146912)"><text x="0" y="0" font-family="Virgil, Segoe UI Emoji" font-size="15.673800205035045px" fill="#1e1e1e" text-anchor="start" style="white-space: pre;" direction="ltr" dominant-baseline="text-before-edge">Attribute</text></g><g stroke-linecap="round"><g transform="translate(571.2828836564113 492.4237477973661) rotate(0 1.2388311939175196 30)"><path d="M0.29 0.4 C0.6 10.53, 2.26 50.42, 2.65 60.18 M-1.02 -0.44 C-0.92 9.96, 1.3 51.78, 1.79 61.81" stroke="#1e1e1e" stroke-width="2" fill="none"></path></g><g transform="translate(571.2828836564113 492.4237477973661) rotate(0 1.2388311939175196 30)"><path d="M-7.93 38.78 C-3.84 47.45, -0.66 55.78, 1.79 61.81 M-7.93 38.78 C-6.59 43.38, -3.07 49.48, 1.79 61.81" stroke="#1e1e1e" stroke-width="2" fill="none"></path></g><g transform="translate(571.2828836564113 492.4237477973661) rotate(0 1.2388311939175196 30)"><path d="M9.15 37.91 C7 46.94, 3.95 55.59, 1.79 61.81 M9.15 37.91 C6.87 42.55, 6.78 48.82, 1.79 61.81" stroke="#1e1e1e" stroke-width="2" fill="none"></path></g></g><mask></mask><g stroke-linecap="round" transform="translate(475.5 558.6714125748165) rotate(0 92.5 22)"><path d="M11 0 C64.08 -0.02, 114.81 -0.64, 174 0 M11 0 C46.15 1.45, 80.53 0.1, 174 0 M174 0 C181.41 -0.21, 184.44 3.38, 185 11 M174 0 C179.47 -0.62, 186.01 4.41, 185 11 M185 11 C185.12 15.7, 186.8 20.68, 185 33 M185 11 C186.04 18.95, 184.61 28.45, 185 33 M185 33 C185.99 41.02, 182.5 45.71, 174 44 M185 33 C183.52 40.63, 183.4 44.2, 174 44 M174 44 C118.46 43.43, 65.19 40.84, 11 44 M174 44 C130.72 43.1, 87.16 43.4, 11 44 M11 44 C1.88 45.23, 0.07 40.53, 0 33 M11 44 C1.43 45.02, 1.26 42.39, 0 33 M0 33 C-0.58 26.52, 0.47 18.9, 0 11 M0 33 C-0.24 25.91, -1.01 20.13, 0 11 M0 11 C0.02 3.35, 3.82 -1.15, 11 0 M0 11 C0.4 5.1, 4.64 -1.82, 11 0" stroke="#1e1e1e" stroke-width="2" fill="none"></path></g><g transform="translate(554.8900146484375 568.1714125748165) rotate(0 13.1099853515625 12.5)"><text x="13.1099853515625" y="0" font-family="Virgil, Segoe UI Emoji" font-size="20px" fill="#1e1e1e" text-anchor="middle" style="white-space: pre;" direction="ltr" dominant-baseline="text-before-edge">div</text></g><g stroke-linecap="round"><g transform="translate(662 580) rotate(0 26 -0.5)"><path d="M-1.15 0.28 C7.61 0.09, 44.08 -1.52, 53.11 -1.54 M0.44 -0.62 C9.1 -0.62, 44.02 -0.13, 52.75 -0.29" stroke="#1e1e1e" stroke-width="2" fill="none"></path></g><g transform="translate(662 580) rotate(0 26 -0.5)"><path d="M29.26 8.26 C37.81 7.41, 44.51 4.39, 52.75 -0.29 M29.26 8.26 C39.08 4.41, 48.8 2.37, 52.75 -0.29" stroke="#1e1e1e" stroke-width="2" fill="none"></path></g><g transform="translate(662 580) rotate(0 26 -0.5)"><path d="M29.26 -8.84 C37.76 -3.82, 44.46 -0.97, 52.75 -0.29 M29.26 -8.84 C39.04 -5.89, 48.76 -1.12, 52.75 -0.29" stroke="#1e1e1e" stroke-width="2" fill="none"></path></g></g><mask></mask><g stroke-linecap="round"><g transform="translate(630.7752149666585 609) rotate(0 23.141755333234414 24.54909858444273)"><path d="M0.84 0.12 C8.4 8.32, 37.77 41.81, 45.26 49.78 M-0.17 -0.87 C7.75 6.94, 39.94 39.77, 47.43 48.02" stroke="#1e1e1e" stroke-width="2" fill="none"></path></g><g transform="translate(630.7752149666585 609) rotate(0 23.141755333234414 24.54909858444273)"><path d="M25.05 36.88 C31.9 38.3, 39.43 42.48, 47.43 48.02 M25.05 36.88 C28.78 39.49, 34.12 42.26, 47.43 48.02" stroke="#1e1e1e" stroke-width="2" fill="none"></path></g><g transform="translate(630.7752149666585 609) rotate(0 23.141755333234414 24.54909858444273)"><path d="M37.45 25.1 C40.7 30.08, 44.58 37.72, 47.43 48.02 M37.45 25.1 C38.65 30.01, 41.46 35.17, 47.43 48.02" stroke="#1e1e1e" stroke-width="2" fill="none"></path></g></g><mask></mask><g stroke-linecap="round"><g transform="translate(503 609) rotate(0 -17.5 23)"><path d="M0.15 -0.53 C-5.84 7.07, -29.25 38.73, -35.22 46.5 M-1.22 1.81 C-7.46 8.96, -30.36 37.03, -36.28 44.64" stroke="#1e1e1e" stroke-width="2" fill="none"></path></g><g transform="translate(503 609) rotate(0 -17.5 23)"><path d="M-28.28 20.96 C-31.87 29.18, -33.05 37.04, -36.28 44.64 M-28.28 20.96 C-30.85 27.92, -33.66 35.07, -36.28 44.64" stroke="#1e1e1e" stroke-width="2" fill="none"></path></g><g transform="translate(503 609) rotate(0 -17.5 23)"><path d="M-14.93 31.64 C-23.43 36.01, -29.45 40, -36.28 44.64 M-14.93 31.64 C-21.59 35.25, -28.53 39.09, -36.28 44.64" stroke="#1e1e1e" stroke-width="2" fill="none"></path></g></g><mask></mask><g transform="translate(684.73279296875 675.464499275748) rotate(0 9.063596191406248 22.980754707637516)"><text x="0" y="0" font-family="Virgil, Segoe UI Emoji" font-size="36.76920753221998px" fill="#1e1e1e" text-anchor="start" style="white-space: pre;" direction="ltr" dominant-baseline="text-before-edge">p</text></g><g transform="translate(447 675) rotate(0 12.149993896484375 19.852947042983942)"><text x="0" y="0" font-family="Virgil, Segoe UI Emoji" font-size="31.764715268774307px" fill="#1e1e1e" text-anchor="start" style="white-space: pre;" direction="ltr" dominant-baseline="text-before-edge">h1</text></g><g stroke-linecap="round"><g transform="translate(429 692) rotate(0 -24.000000000000057 0.11290008016055708)"><path d="M0.35 -0.03 C-7.71 -0.01, -40.24 -0.44, -48.26 -0.31 M-0.14 -0.52 C-8.29 -0.42, -40.85 0.04, -48.83 0.11" stroke="#1e1e1e" stroke-width="2" fill="none"></path></g><g transform="translate(429 692) rotate(0 -24.000000000000057 0.11290008016055708)"><path d="M-26.38 -8.37 C-33.43 -6.15, -41.31 -2.68, -48.83 0.11 M-26.38 -8.37 C-34.67 -4.81, -43.41 -1.82, -48.83 0.11" stroke="#1e1e1e" stroke-width="2" fill="none"></path></g><g transform="translate(429 692) rotate(0 -24.000000000000057 0.11290008016055708)"><path d="M-26.18 8.05 C-33.23 5.18, -41.17 3.56, -48.83 0.11 M-26.18 8.05 C-34.52 5.27, -43.33 1.93, -48.83 0.11" stroke="#1e1e1e" stroke-width="2" fill="none"></path></g></g><mask></mask><g stroke-linecap="round"><g transform="translate(455.0813600068657 721) rotate(0 -0.9225917121353859 24.5)"><path d="M0.41 -0.17 C0.08 8.06, -1.1 40.77, -1.52 48.93 M-0.04 -0.73 C-0.46 7.62, -1.36 41.26, -1.79 49.59" stroke="#1e1e1e" stroke-width="2" fill="none"></path></g><g transform="translate(455.0813600068657 721) rotate(0 -0.9225917121353859 24.5)"><path d="M-9.3 26.25 C-6.78 35.91, -3.67 43.91, -1.79 49.59 M-9.3 26.25 C-7.62 32.34, -5.12 38.11, -1.79 49.59" stroke="#1e1e1e" stroke-width="2" fill="none"></path></g><g transform="translate(455.0813600068657 721) rotate(0 -0.9225917121353859 24.5)"><path d="M7.46 26.88 C3.46 36.35, 0.04 44.11, -1.79 49.59 M7.46 26.88 C4.84 32.82, 3.04 38.43, -1.79 49.59" stroke="#1e1e1e" stroke-width="2" fill="none"></path></g></g><mask></mask><g transform="translate(301 681.7436412040429) rotate(0 33.83995056152344 9.128179397978556)"><text x="0" y="0" font-family="Virgil, Segoe UI Emoji" font-size="14.605087036765674px" fill="#1e1e1e" text-anchor="start" style="white-space: pre;" direction="ltr" dominant-baseline="text-before-edge">attribute</text></g><g transform="translate(415.16004943847656 784.8718206020214) rotate(0 35.594764709472656 9.128179397978556)"><text x="0" y="0" font-family="Virgil, Segoe UI Emoji" font-size="14.605087036765674px" fill="#1e1e1e" text-anchor="start" style="white-space: pre;" direction="ltr" dominant-baseline="text-before-edge">text node</text></g><g transform="translate(725.1600494384766 565.8718206020214) rotate(0 33.83995056152344 9.128179397978556)"><text x="0" y="0" font-family="Virgil, Segoe UI Emoji" font-size="14.605087036765674px" fill="#1e1e1e" text-anchor="start" style="white-space: pre;" direction="ltr" dominant-baseline="text-before-edge">attribute</text></g><g stroke-linecap="round"><g transform="translate(688.3265458589165 734.3025849675831) rotate(0 0.5774082878646141 24.5)"><path d="M-0.22 -0.26 C0 7.92, 0.84 40.83, 1.15 49.03 M0.66 0.79 C0.84 9.07, 0.58 41.63, 0.72 49.74" stroke="#1e1e1e" stroke-width="2" fill="none"></path></g><g transform="translate(688.3265458589165 734.3025849675831) rotate(0 0.5774082878646141 24.5)"><path d="M-7.74 26.74 C-6.02 32.77, -3.28 39.65, 0.72 49.74 M-7.74 26.74 C-5.29 33.51, -2.78 40.01, 0.72 49.74" stroke="#1e1e1e" stroke-width="2" fill="none"></path></g><g transform="translate(688.3265458589165 734.3025849675831) rotate(0 0.5774082878646141 24.5)"><path d="M9.02 26.68 C6.36 32.69, 4.72 39.59, 0.72 49.74 M9.02 26.68 C6.73 33.39, 4.5 39.91, 0.72 49.74" stroke="#1e1e1e" stroke-width="2" fill="none"></path></g></g><mask></mask><g transform="translate(651.4052352905273 798.1744055696046) rotate(0 35.594764709472656 9.128179397978556)"><text x="0" y="0" font-family="Virgil, Segoe UI Emoji" font-size="14.605087036765674px" fill="#1e1e1e" text-anchor="start" style="white-space: pre;" direction="ltr" dominant-baseline="text-before-edge">text node</text></g></svg>