<svg version="1.1" xmlns="http://www.w3.org/2000/svg" viewBox="0 0 837.7745056152344 976.6" width="1675.5490112304688" height="1953.2" filter="invert(93%) hue-rotate(180deg)">
  <!-- svg-source:excalidraw -->
  
  <defs>
    <style class="style-fonts">
      @font-face {
        font-family: "Virgil";
        src: url("https://excalidraw.com/Virgil.woff2");
      }
      @font-face {
        font-family: "Cascadia";
        src: url("https://excalidraw.com/Cascadia.woff2");
      }
      @font-face {
        font-family: "Assistant";
        src: url("https://excalidraw.com/Assistant-Regular.woff2");
      }
    </style>
    
  </defs>
  <rect x="0" y="0" width="837.7745056152344" height="976.6" fill="#ffffff"></rect><g stroke-linecap="round" transform="translate(208.0546875 643.6) rotate(0 154 161.5)"><path d="M32 0 C114.87 1.9, 198.01 1.29, 276 0 M32 0 C101.62 -1.56, 172.85 -0.42, 276 0 M276 0 C299.27 0.6, 308.05 12.47, 308 32 M276 0 C295.33 -0.31, 306.9 12.9, 308 32 M308 32 C309.44 96.34, 308.47 160.71, 308 291 M308 32 C307.57 121.89, 307.16 212.2, 308 291 M308 291 C308.2 313.2, 297 322.73, 276 323 M308 291 C308.13 311.6, 296.04 321.33, 276 323 M276 323 C200.47 326.6, 124.68 325.9, 32 323 M276 323 C182.41 322.4, 88.32 321.49, 32 323 M32 323 C11.43 322.74, 0.34 311.57, 0 291 M32 323 C12.09 323.91, 1.45 310.92, 0 291 M0 291 C-1.34 238.06, -2.7 187.55, 0 32 M0 291 C0.27 199.45, -0.54 108.87, 0 32 M0 32 C-0.18 10.54, 12.25 1.22, 32 0 M0 32 C-1.92 9.82, 12.92 0.41, 32 0" stroke="#1e1e1e" stroke-width="2" fill="none"></path></g><g stroke-linecap="round" transform="translate(222.0546875 902.6) rotate(0 137.5 23.5)"><path d="M11.75 0 C77.41 -0.28, 144.33 -0.83, 263.25 0 M11.75 0 C86.58 1.19, 162.83 1.13, 263.25 0 M263.25 0 C269.93 0.5, 276.02 2.72, 275 11.75 M263.25 0 C272 0.32, 275.95 5.8, 275 11.75 M275 11.75 C275.96 18.2, 275.74 24.96, 275 35.25 M275 11.75 C274.44 16.75, 275.63 23.38, 275 35.25 M275 35.25 C276.14 42.82, 269.82 46.37, 263.25 47 M275 35.25 C274.27 40.9, 269.57 46.69, 263.25 47 M263.25 47 C166.5 48.22, 73.16 47.95, 11.75 47 M263.25 47 C171.93 47, 80.22 47.2, 11.75 47 M11.75 47 C5.75 45.65, 0.62 41.45, 0 35.25 M11.75 47 C2.45 48.13, -1.86 45.1, 0 35.25 M0 35.25 C0.02 29.48, -0.13 21.4, 0 11.75 M0 35.25 C0.89 27.8, -0.12 18.46, 0 11.75 M0 11.75 C-0.05 5.9, 2.08 -0.32, 11.75 0 M0 11.75 C0.75 3.97, 6.09 -2.09, 11.75 0" stroke="#1e1e1e" stroke-width="2" fill="none"></path></g><g transform="translate(234.0546875 913.6) rotate(0 124.63990020751953 12.5)"><text x="0" y="0" font-family="Virgil, Segoe UI Emoji" font-size="20px" fill="#1e1e1e" text-anchor="start" style="white-space: pre;" direction="ltr" dominant-baseline="text-before-edge">Global Execution context</text></g><g stroke-linecap="round" transform="translate(221.0546875 857.6) rotate(0 138.5 16.5)"><path d="M8.25 0 C108.99 -1.89, 207.65 -2.25, 268.75 0 M8.25 0 C112.24 1.09, 215.75 0.73, 268.75 0 M268.75 0 C272.52 1.29, 278.76 1.87, 277 8.25 M268.75 0 C275.63 1.46, 275.71 1.3, 277 8.25 M277 8.25 C277.41 14.8, 276.52 20.95, 277 24.75 M277 8.25 C276.48 13.77, 276.28 18.43, 277 24.75 M277 24.75 C278.58 30.02, 273.71 34.03, 268.75 33 M277 24.75 C278.98 31.4, 275.15 34.75, 268.75 33 M268.75 33 C205.5 31.99, 141.23 34.05, 8.25 33 M268.75 33 C201.88 33.7, 134.42 33.59, 8.25 33 M8.25 33 C3.05 34.91, -1.84 32.11, 0 24.75 M8.25 33 C4.74 31.11, 2.16 32.23, 0 24.75 M0 24.75 C0.04 19.25, 0.76 15.53, 0 8.25 M0 24.75 C0.11 18.28, -0.36 12.38, 0 8.25 M0 8.25 C1.45 4.15, 1.76 -1.39, 8.25 0 M0 8.25 C0.69 2.22, 2.65 0.67, 8.25 0" stroke="#1e1e1e" stroke-width="2" fill="none"></path></g><g stroke-linecap="round" transform="translate(222.5546875 813.1) rotate(0 138.5 16.5)"><path d="M8.25 0 C89.5 2.44, 171.57 2.39, 268.75 0 M8.25 0 C109.18 -1.22, 212.32 -1.68, 268.75 0 M268.75 0 C276.21 1.18, 276.7 1.03, 277 8.25 M268.75 0 C273.06 0.7, 278.33 3.79, 277 8.25 M277 8.25 C275.5 12.94, 276.96 17.7, 277 24.75 M277 8.25 C277.44 11.6, 277.92 15.64, 277 24.75 M277 24.75 C278.45 30.87, 273.84 31.46, 268.75 33 M277 24.75 C276.7 31.97, 274.43 31.37, 268.75 33 M268.75 33 C173.13 35.49, 79.01 33.51, 8.25 33 M268.75 33 C181.03 30.3, 92.07 31.08, 8.25 33 M8.25 33 C1.16 32.6, -1.78 29.88, 0 24.75 M8.25 33 C2.36 30.75, -2.09 31.84, 0 24.75 M0 24.75 C1.27 19.59, -0.27 15.51, 0 8.25 M0 24.75 C0 20.16, -0.34 17.21, 0 8.25 M0 8.25 C0.08 2.96, 4.47 -1.54, 8.25 0 M0 8.25 C-0.19 1.98, 2.15 0.84, 8.25 0" stroke="#1e1e1e" stroke-width="2" fill="none"></path></g><g stroke-linecap="round" transform="translate(221.5546875 769.1) rotate(0 138.5 16.5)"><path d="M8.25 0 C82.86 1.24, 156.91 2.55, 268.75 0 M8.25 0 C66.13 0.99, 123.67 1.1, 268.75 0 M268.75 0 C275.19 1.53, 277.35 4.09, 277 8.25 M268.75 0 C273.35 -0.25, 275.06 1.73, 277 8.25 M277 8.25 C276.76 13.08, 276.84 17.69, 277 24.75 M277 8.25 C276.41 13.36, 277.45 16.75, 277 24.75 M277 24.75 C276.59 28.66, 273.43 33.11, 268.75 33 M277 24.75 C278.76 29.38, 273.08 32.34, 268.75 33 M268.75 33 C212.49 34.61, 154.78 31.52, 8.25 33 M268.75 33 C211.26 31.23, 153.44 32.13, 8.25 33 M8.25 33 C3.42 34.67, -0.32 28.9, 0 24.75 M8.25 33 C0.54 31.66, 0.24 31.16, 0 24.75 M0 24.75 C-0.34 19.34, 0.32 10.67, 0 8.25 M0 24.75 C-0.66 19.47, 0.38 15.06, 0 8.25 M0 8.25 C0.43 3.78, 4.43 0.52, 8.25 0 M0 8.25 C0.54 4.8, 4.43 0.01, 8.25 0" stroke="#1e1e1e" stroke-width="2" fill="none"></path></g><g stroke-linecap="round" transform="translate(221.5546875 723.1) rotate(0 138.5 16.5)"><path d="M8.25 0 C92.41 -1.38, 177.17 -0.59, 268.75 0 M8.25 0 C86.23 1.33, 164.06 0.9, 268.75 0 M268.75 0 C272.67 -1.04, 278.26 2.08, 277 8.25 M268.75 0 C271.96 -1.02, 277.85 4.79, 277 8.25 M277 8.25 C277.92 16.1, 276.86 21.93, 277 24.75 M277 8.25 C277.42 12.27, 276.68 16.49, 277 24.75 M277 24.75 C278.49 29.98, 273.29 31.54, 268.75 33 M277 24.75 C275.73 30.22, 276.21 32.83, 268.75 33 M268.75 33 C172.6 33.75, 72.86 33.46, 8.25 33 M268.75 33 C204.34 33.71, 137.59 32.87, 8.25 33 M8.25 33 C2.72 31.26, -1.51 28.63, 0 24.75 M8.25 33 C2.81 33.32, -1.98 32.28, 0 24.75 M0 24.75 C-1.11 17.99, 1.41 13.65, 0 8.25 M0 24.75 C-0.65 18.35, -0.24 12.82, 0 8.25 M0 8.25 C0.42 2.2, 1.53 0.56, 8.25 0 M0 8.25 C1.63 3.26, 1.92 0.56, 8.25 0" stroke="#1e1e1e" stroke-width="2" fill="none"></path></g><g stroke-linecap="round" transform="translate(224.5546875 672.1) rotate(0 138.5 19)"><path d="M9.5 0 C91.57 -1.09, 170.87 -2.84, 267.5 0 M9.5 0 C75.66 -0.7, 141.68 -1.71, 267.5 0 M267.5 0 C271.92 -0.35, 275.27 3.59, 277 9.5 M267.5 0 C273.21 -1.4, 277.64 4.8, 277 9.5 M277 9.5 C275.96 14.92, 275.14 20.91, 277 28.5 M277 9.5 C276.24 16.18, 277.45 22.41, 277 28.5 M277 28.5 C277.24 33.75, 275.17 37.14, 267.5 38 M277 28.5 C277.34 32.76, 273.28 37.28, 267.5 38 M267.5 38 C212.95 35.69, 160.4 35.34, 9.5 38 M267.5 38 C210.46 36.01, 151.82 36.87, 9.5 38 M9.5 38 C5.03 39.67, 0.78 36.04, 0 28.5 M9.5 38 C4.04 39.38, 1.48 37.02, 0 28.5 M0 28.5 C-1.4 21.34, 0.8 18.46, 0 9.5 M0 28.5 C0.7 23.69, -0.56 17.09, 0 9.5 M0 9.5 C1.01 3.53, 4.79 -0.3, 9.5 0 M0 9.5 C-1.53 5.02, 1.32 -0.38, 9.5 0" stroke="#1e1e1e" stroke-width="2" fill="none"></path></g><g transform="translate(325.44471740722656 678.6) rotate(0 37.60997009277344 12.5)"><text x="37.60997009277344" y="0" font-family="Virgil, Segoe UI Emoji" font-size="20px" fill="#1e1e1e" text-anchor="middle" style="white-space: pre;" direction="ltr" dominant-baseline="text-before-edge">callMe()</text></g><g transform="translate(648.0546875 753.6) rotate(0 53.879974365234375 37.5)"><text x="0" y="0" font-family="Virgil, Segoe UI Emoji" font-size="20px" fill="#1e1e1e" text-anchor="start" style="white-space: pre;" direction="ltr" dominant-baseline="text-before-edge">function(){</text><text x="0" y="25" font-family="Virgil, Segoe UI Emoji" font-size="20px" fill="#1e1e1e" text-anchor="start" style="white-space: pre;" direction="ltr" dominant-baseline="text-before-edge">   callME()</text><text x="0" y="50" font-family="Virgil, Segoe UI Emoji" font-size="20px" fill="#1e1e1e" text-anchor="start" style="white-space: pre;" direction="ltr" dominant-baseline="text-before-edge">}</text></g><g transform="translate(579.0546875 649.6) rotate(0 124.35990905761719 37.5)"><text x="0" y="0" font-family="Virgil, Segoe UI Emoji" font-size="20px" fill="#1e1e1e" text-anchor="start" style="white-space: pre;" direction="ltr" dominant-baseline="text-before-edge">window = {this = window};</text><text x="0" y="25" font-family="Virgil, Segoe UI Emoji" font-size="20px" fill="#1e1e1e" text-anchor="start" style="white-space: pre;" direction="ltr" dominant-baseline="text-before-edge"></text><text x="0" y="50" font-family="Virgil, Segoe UI Emoji" font-size="20px" fill="#1e1e1e" text-anchor="start" style="white-space: pre;" direction="ltr" dominant-baseline="text-before-edge">node ={}</text></g><g transform="translate(16.087722778320312 10) rotate(0 101.64567565917969 17.382136894824725)"><text x="101.64567565917969" y="0" font-family="Helvetica, Segoe UI Emoji" font-size="30.229803295347327px" fill="#1e1e1e" text-anchor="middle" style="white-space: pre;" direction="ltr" dominant-baseline="text-before-edge">Event Bubbling</text></g><g transform="translate(10 94) rotate(0 128.974609375 57.5)"><text x="0" y="0" font-family="Helvetica, Segoe UI Emoji" font-size="20px" fill="#1e1e1e" text-anchor="start" style="white-space: pre;" direction="ltr" dominant-baseline="text-before-edge">With bubbling, the event is </text><text x="0" y="23" font-family="Helvetica, Segoe UI Emoji" font-size="20px" fill="#1e1e1e" text-anchor="start" style="white-space: pre;" direction="ltr" dominant-baseline="text-before-edge">first captured and handled by</text><text x="0" y="46" font-family="Helvetica, Segoe UI Emoji" font-size="20px" fill="#1e1e1e" text-anchor="start" style="white-space: pre;" direction="ltr" dominant-baseline="text-before-edge">the innermost element and </text><text x="0" y="69" font-family="Helvetica, Segoe UI Emoji" font-size="20px" fill="#1e1e1e" text-anchor="start" style="white-space: pre;" direction="ltr" dominant-baseline="text-before-edge">then propagated to outer </text><text x="0" y="92" font-family="Helvetica, Segoe UI Emoji" font-size="20px" fill="#1e1e1e" text-anchor="start" style="white-space: pre;" direction="ltr" dominant-baseline="text-before-edge">elements.</text></g><g stroke-linecap="round" transform="translate(438.0546875 26.600000000000023) rotate(0 71 16.5)"><path d="M-1.76 -0.44 L142.93 -0.15 L142.04 32.73 L0.32 33.81" stroke="none" stroke-width="0" fill="#2f9e44"></path><path d="M0 0 C47.57 -0.5, 97.77 -0.02, 142 0 M0 0 C50.72 -0.12, 103.47 0.55, 142 0 M142 0 C140.83 6.67, 142.88 14.83, 142 33 M142 0 C142.07 10.92, 142.87 19.71, 142 33 M142 33 C103.27 29.96, 60.24 31.48, 0 33 M142 33 C87.52 32.34, 32.07 32.13, 0 33 M0 33 C-0.09 23.44, -0.37 16.37, 0 0 M0 33 C-0.4 25.79, 0.22 16.88, 0 0" stroke="#1e1e1e" stroke-width="1" fill="none"></path></g><g transform="translate(462.8359375 33.89999999999998) rotate(0 46.21875 9.199999999999989)"><text x="46.21875" y="0" font-family="Helvetica, Segoe UI Emoji" font-size="16px" fill="#1e1e1e" text-anchor="middle" style="white-space: pre;" direction="ltr" dominant-baseline="text-before-edge">DOCUMENT</text></g><g stroke-linecap="round" transform="translate(437.0546875 76.10000000000002) rotate(0 71 16.5)"><path d="M-0.71 0.59 L143.44 0.42 L142.32 33.11 L0.03 31.05" stroke="none" stroke-width="0" fill="#2f9e44"></path><path d="M0 0 C37.52 0.18, 73.36 0.15, 142 0 M0 0 C46 1.46, 92.87 1.72, 142 0 M142 0 C140.48 6.63, 140.13 16.69, 142 33 M142 0 C142.71 8.05, 142.14 16.94, 142 33 M142 33 C102.63 33.78, 62.97 32.01, 0 33 M142 33 C96.19 34.68, 50.44 34.21, 0 33 M0 33 C-0.36 21.48, 1.48 9.2, 0 0 M0 33 C0.77 25.36, 0.23 18.02, 0 0" stroke="#1e1e1e" stroke-width="1" fill="none"></path></g><g transform="translate(486.27734375 83.39999999999998) rotate(0 21.77734375 9.199999999999989)"><text x="21.77734375" y="0" font-family="Helvetica, Segoe UI Emoji" font-size="16px" fill="#1e1e1e" text-anchor="middle" style="white-space: pre;" direction="ltr" dominant-baseline="text-before-edge">HTML</text></g><g stroke-linecap="round" transform="translate(436.0546875 125.10000000000002) rotate(0 71 16.5)"><path d="M-0.94 -0.05 L142.01 -0.93 L143.11 33.29 L-0.58 33.53" stroke="none" stroke-width="0" fill="#2f9e44"></path><path d="M0 0 C40.13 -0.52, 79.96 -2.3, 142 0 M0 0 C46.15 -0.65, 92.35 -1.11, 142 0 M142 0 C142.02 10.54, 143.86 20.34, 142 33 M142 0 C142.49 7.37, 141.94 15.06, 142 33 M142 33 C104.86 34.34, 66.99 34.05, 0 33 M142 33 C112.88 31.58, 83.72 32.17, 0 33 M0 33 C-1.65 22.19, -0.76 11.01, 0 0 M0 33 C-0.66 20.77, 0.24 7.88, 0 0" stroke="#1e1e1e" stroke-width="1" fill="none"></path></g><g transform="translate(484.3828125 132.39999999999998) rotate(0 22.671875 9.199999999999989)"><text x="22.671875" y="0" font-family="Helvetica, Segoe UI Emoji" font-size="16px" fill="#1e1e1e" text-anchor="middle" style="white-space: pre;" direction="ltr" dominant-baseline="text-before-edge">BODY</text></g><g stroke-linecap="round" transform="translate(438.0546875 175.10000000000002) rotate(0 71 16.5)"><path d="M-1.32 0.19 L143.84 1.06 L143.46 34.09 L1.2 34.88" stroke="none" stroke-width="0" fill="#2f9e44"></path><path d="M0 0 C44.4 1.94, 88.04 0.82, 142 0 M0 0 C42.65 0.89, 86.38 0.67, 142 0 M142 0 C143.31 6.22, 140.53 15.25, 142 33 M142 0 C142.2 8.89, 141.46 18.06, 142 33 M142 33 C95.33 32.34, 47.84 33.44, 0 33 M142 33 C96.78 32.41, 53.61 33.9, 0 33 M0 33 C0.27 22.82, -1.42 10.74, 0 0 M0 33 C0.08 24.85, 0.63 14.96, 0 0" stroke="#1e1e1e" stroke-width="1" fill="none"></path></g><g transform="translate(495.71875 182.40000000000003) rotate(0 13.3359375 9.200000000000003)"><text x="13.3359375" y="0" font-family="Helvetica, Segoe UI Emoji" font-size="16px" fill="#1e1e1e" text-anchor="middle" style="white-space: pre;" direction="ltr" dominant-baseline="text-before-edge">DIV</text></g><g stroke-linecap="round" transform="translate(438.0546875 226.10000000000002) rotate(0 71 16.5)"><path d="M-0.87 1.61 L142.55 0 L142.36 32.52 L-1.33 33.8" stroke="none" stroke-width="0" fill="#b2f2bb"></path><path d="M0 0 C40.94 0.17, 82.39 -0.15, 142 0 M0 0 C54.63 0.73, 108.55 0.96, 142 0 M142 0 C140.66 10.19, 140.61 17.61, 142 33 M142 0 C141.66 11.58, 142.55 24.99, 142 33 M142 33 C95.53 34.53, 45.55 31.38, 0 33 M142 33 C106.81 33.35, 72.06 33.46, 0 33 M0 33 C-2.08 20.62, 1.6 7.44, 0 0 M0 33 C0.57 25.44, 1.03 15.91, 0 0" stroke="#1e1e1e" stroke-width="1" fill="none"></path></g><g transform="translate(476.3125 233.40000000000003) rotate(0 32.7421875 9.200000000000003)"><text x="32.7421875" y="0" font-family="Helvetica, Segoe UI Emoji" font-size="16px" fill="#1e1e1e" text-anchor="middle" style="white-space: pre;" direction="ltr" dominant-baseline="text-before-edge">BUTTON</text></g><g transform="translate(489.0546875 277.6) rotate(0 22.335891723632812 12.912043168996803)"><text x="0" y="0" font-family="Helvetica, Segoe UI Emoji" font-size="11.227863625214617px" fill="#1e1e1e" text-anchor="start" style="white-space: pre;" direction="ltr" dominant-baseline="text-before-edge">EVENT </text><text x="0" y="12.912043168996808" font-family="Helvetica, Segoe UI Emoji" font-size="11.227863625214617px" fill="#1e1e1e" text-anchor="start" style="white-space: pre;" direction="ltr" dominant-baseline="text-before-edge">TARGET</text></g><g stroke-linecap="round" transform="translate(545.0546875 242.60000000000002) rotate(0 32 24)"><path d="M33 0.06 C39.51 -0.24, 48.92 2.02, 53.86 5.47 C58.81 8.92, 61.78 15.48, 62.7 20.76 C63.62 26.04, 62.68 32.81, 59.38 37.14 C56.09 41.47, 49.37 45.28, 42.92 46.74 C36.47 48.2, 27.35 47.84, 20.69 45.91 C14.03 43.98, 6.35 39.68, 2.95 35.18 C-0.45 30.68, -1.28 24, 0.28 18.92 C1.84 13.83, 6.45 7.9, 12.28 4.65 C18.12 1.4, 31.3 0.09, 35.28 -0.58 C39.26 -1.26, 36.28 0.16, 36.17 0.58 M32.91 0.03 C39.51 -0.19, 48.46 1.6, 53.77 5.11 C59.07 8.62, 63.97 16.06, 64.73 21.1 C65.5 26.14, 61.85 31.24, 58.36 35.37 C54.87 39.49, 49.92 43.91, 43.78 45.84 C37.63 47.78, 28.22 48.71, 21.49 46.96 C14.75 45.2, 6.7 39.95, 3.37 35.32 C0.03 30.68, 0.04 24.31, 1.48 19.14 C2.93 13.97, 6.93 7.46, 12.04 4.31 C17.14 1.17, 28.78 0.95, 32.12 0.26 C35.45 -0.44, 32.25 -0.28, 32.06 0.15" stroke="none" stroke-width="0" fill="#e8590c"></path><path d="M34.79 1.03 C41.33 1.09, 50.29 3.19, 55.24 6.71 C60.2 10.23, 64.14 17.04, 64.53 22.13 C64.92 27.23, 61.75 33.25, 57.58 37.31 C53.41 41.37, 46 45.15, 39.49 46.52 C32.98 47.89, 24.7 47.72, 18.5 45.53 C12.3 43.34, 5.13 38.01, 2.29 33.4 C-0.55 28.78, -0.56 22.67, 1.47 17.86 C3.5 13.05, 7.86 7.54, 14.46 4.55 C21.05 1.57, 35.78 0.38, 41.03 -0.05 C46.28 -0.49, 46.2 1.41, 45.95 1.94 M28.29 0.62 C34.76 -0.19, 44.32 2.39, 50.03 5.07 C55.73 7.74, 60.75 12.04, 62.51 16.67 C64.28 21.3, 63.52 28.19, 60.62 32.86 C57.73 37.53, 51.08 42.36, 45.15 44.68 C39.22 47.01, 31.8 48.02, 25.06 46.79 C18.32 45.57, 8.93 41.52, 4.72 37.35 C0.5 33.17, -0.91 26.64, -0.23 21.74 C0.46 16.83, 3.83 11.48, 8.84 7.91 C13.84 4.33, 26.55 1.74, 29.81 0.28 C33.08 -1.17, 28.53 -1.25, 28.43 -0.82" stroke="#1e1e1e" stroke-width="1" fill="none"></path></g><g transform="translate(561.3725830020305 257.42943725152287) rotate(0 15.5546875 9.200000000000003)"><text x="15.5546875" y="0" font-family="Helvetica, Segoe UI Emoji" font-size="16px" fill="#1e1e1e" text-anchor="middle" style="white-space: pre;" direction="ltr" dominant-baseline="text-before-edge">click</text></g><g stroke-linecap="round"><g transform="translate(650.0546875 274.6) rotate(0 -0.5 -127.5)"><path d="M2.81 0.19 C1.24 -80.4, 2.78 -155.33, 0.19 -253.95 M-0.93 -1.55 C-2.49 -67.26, -4.67 -133.59, -2.01 -253.64" stroke="#b2f2bb" stroke-width="2" fill="none"></path></g><g transform="translate(650.0546875 274.6) rotate(0 -0.5 -127.5)"><path d="M7.97 -229.92 C3.75 -238.43, 2.34 -243.4, -1.28 -252.99 M5.65 -231 C4.49 -236.32, 1.13 -241.98, -2.64 -252.8" stroke="#b2f2bb" stroke-width="2" fill="none"></path></g><g transform="translate(650.0546875 274.6) rotate(0 -0.5 -127.5)"><path d="M-9.13 -230.14 C-8.08 -238.47, -4.2 -243.36, -1.28 -252.99 M-11.45 -231.22 C-8.1 -236.36, -6.95 -241.96, -2.64 -252.8" stroke="#b2f2bb" stroke-width="2" fill="none"></path></g></g><mask></mask><g transform="translate(674.1689453125 137.20000000000005) rotate(0 28.95703125 13.169759582890805)"><text x="28.95703125" y="0" font-family="Helvetica, Segoe UI Emoji" font-size="11.45196485468765px" fill="#1e1e1e" text-anchor="middle" style="white-space: pre;" direction="ltr" dominant-baseline="text-before-edge">EVENT</text><text x="28.95703125" y="13.169759582890798" font-family="Helvetica, Segoe UI Emoji" font-size="11.45196485468765px" fill="#1e1e1e" text-anchor="middle" style="white-space: pre;" direction="ltr" dominant-baseline="text-before-edge">BUBBLING</text></g></svg>