<svg version="1.1" xmlns="http://www.w3.org/2000/svg" viewBox="0 0 466.75029282964294 186.25" width="1400.2508784889287" height="558.75" filter="invert(93%) hue-rotate(180deg)">
  <!-- svg-source:excalidraw -->
  
  <defs>
    <style class="style-fonts">
      @font-face {
        font-family: "Virgil";
        src: url("https://excalidraw.com/Virgil.woff2");
      }
      @font-face {
        font-family: "Cascadia";
        src: url("https://excalidraw.com/Cascadia.woff2");
      }
      @font-face {
        font-family: "Assistant";
        src: url("https://excalidraw.com/Assistant-Regular.woff2");
      }
    </style>
    
  </defs>
  <rect x="0" y="0" width="466.75029282964294" height="186.25" fill="#ffffff"></rect><g transform="translate(10 77.25) rotate(0 31.519981384277344 12.5)"><text x="0" y="0" font-family="Virgil, Segoe UI Emoji" font-size="20px" fill="#1e1e1e" text-anchor="start" style="white-space: pre;" direction="ltr" dominant-baseline="text-before-edge">Array </text></g><g stroke-linecap="round"><g transform="translate(101 90.25) rotate(0 50.5 -1)"><path d="M-0.08 0.57 C16.81 0.05, 83.88 -1.41, 100.55 -2.03 M-1.58 -0.18 C15.18 0.01, 82.05 -0.14, 99.36 -0.51" stroke="#1e1e1e" stroke-width="2" fill="none"></path></g><g transform="translate(101 90.25) rotate(0 50.5 -1)"><path d="M75.96 8.28 C82.31 5.48, 86.79 2.4, 99.36 -0.51 M75.96 8.28 C80.05 5.83, 86.07 3.65, 99.36 -0.51" stroke="#1e1e1e" stroke-width="2" fill="none"></path></g><g transform="translate(101 90.25) rotate(0 50.5 -1)"><path d="M75.78 -8.82 C82.33 -7.61, 86.86 -6.69, 99.36 -0.51 M75.78 -8.82 C79.77 -7.78, 85.82 -6.47, 99.36 -0.51" stroke="#1e1e1e" stroke-width="2" fill="none"></path></g></g><mask></mask><g transform="translate(220 70.25) rotate(0 36.759971618652344 12.5)"><text x="0" y="0" font-family="Virgil, Segoe UI Emoji" font-size="20px" fill="#1e1e1e" text-anchor="start" style="white-space: pre;" direction="ltr" dominant-baseline="text-before-edge">Object </text></g><g stroke-linecap="round"><g transform="translate(316.53032212651794 86.75) rotate(0 42 -0.5)"><path d="M-0.07 1.05 C13.95 0.96, 69.85 -1.4, 83.68 -1.67 M-1.57 0.56 C12.31 0.71, 68.1 0.06, 82.57 -0.48" stroke="#1e1e1e" stroke-width="2" fill="none"></path></g><g transform="translate(316.53032212651794 86.75) rotate(0 42 -0.5)"><path d="M59.27 8.59 C67.21 5.71, 70.45 2.08, 82.57 -0.48 M59.27 8.59 C67.4 6.32, 74.64 2.51, 82.57 -0.48" stroke="#1e1e1e" stroke-width="2" fill="none"></path></g><g transform="translate(316.53032212651794 86.75) rotate(0 42 -0.5)"><path d="M58.89 -8.5 C66.78 -6.91, 70.11 -6.06, 82.57 -0.48 M58.89 -8.5 C67.06 -4.99, 74.43 -3, 82.57 -0.48" stroke="#1e1e1e" stroke-width="2" fill="none"></path></g></g><mask></mask><g transform="translate(425.53032212651794 68.75) rotate(0 15.6099853515625 12.5)"><text x="0" y="0" font-family="Virgil, Segoe UI Emoji" font-size="20px" fill="#1e1e1e" text-anchor="start" style="white-space: pre;" direction="ltr" dominant-baseline="text-before-edge">null</text></g><g transform="translate(10 151.25) rotate(0 27.89997100830078 12.5)"><text x="0" y="0" font-family="Virgil, Segoe UI Emoji" font-size="20px" fill="#1e1e1e" text-anchor="start" style="white-space: pre;" direction="ltr" dominant-baseline="text-before-edge">String</text></g><g stroke-linecap="round"><g transform="translate(107 159.25) rotate(0 51.5 -19)"><path d="M0.45 -0.37 C17.87 -6.37, 86.66 -30.86, 103.72 -37.03 M-0.77 -1.61 C16.62 -7.84, 86.03 -32.35, 103.16 -38.64" stroke="#1e1e1e" stroke-width="2" fill="none"></path></g><g transform="translate(107 159.25) rotate(0 51.5 -19)"><path d="M83.94 -22.65 C87.94 -25.25, 94.66 -30.46, 103.16 -38.64 M83.94 -22.65 C89.63 -28.89, 97.9 -33.25, 103.16 -38.64" stroke="#1e1e1e" stroke-width="2" fill="none"></path></g><g transform="translate(107 159.25) rotate(0 51.5 -19)"><path d="M78.16 -38.75 C83.37 -37.61, 91.44 -39.07, 103.16 -38.64 M78.16 -38.75 C85.98 -39.35, 96.29 -38.04, 103.16 -38.64" stroke="#1e1e1e" stroke-width="2" fill="none"></path></g></g><mask></mask><g transform="translate(11.375146414821529 10) rotate(0 43.27996063232422 12.5)"><text x="0" y="0" font-family="Virgil, Segoe UI Emoji" font-size="20px" fill="#1e1e1e" text-anchor="start" style="white-space: pre;" direction="ltr" dominant-baseline="text-before-edge">function </text></g><g stroke-linecap="round"><g transform="translate(115.37514641482153 29) rotate(0 40 11)"><path d="M0.15 0.51 C13.23 3.84, 65.62 17.53, 79.06 21.1 M-1.23 -0.27 C12.17 3.7, 67.67 18.26, 81.28 22.16" stroke="#1e1e1e" stroke-width="2" fill="none"></path></g><g transform="translate(115.37514641482153 29) rotate(0 40 11)"><path d="M56.36 24.22 C65.89 21.9, 72.23 24.04, 81.28 22.16 M56.36 24.22 C63.62 23.31, 71.89 22.04, 81.28 22.16" stroke="#1e1e1e" stroke-width="2" fill="none"></path></g><g transform="translate(115.37514641482153 29) rotate(0 40 11)"><path d="M60.87 7.72 C68.98 11.17, 73.75 19.06, 81.28 22.16 M60.87 7.72 C66.86 11.65, 73.82 15.19, 81.28 22.16" stroke="#1e1e1e" stroke-width="2" fill="none"></path></g></g><mask></mask></svg>